<svg xmlns="http://www.w3.org/2000/svg" fill="none" viewBox="0 0 26 20"><g fill="currentColor" clip-path="url(#BDLogo_svg__a)"><path d="M21.77 8.26c-.784 0-1.5-.18-2.15-.516-.65-.359-1.164-.83-1.545-1.459a4.085 4.085 0 0 1-.582-2.155c0-.808.202-1.526.582-2.155A3.869 3.869 0 0 1 19.62.516 4.605 4.605 0 0 1 21.77 0c.783 0 1.477.18 2.126.516a3.87 3.87 0 0 1 1.544 1.46c.38.628.56 1.346.56 2.154 0 .808-.18 1.527-.56 2.155a3.87 3.87 0 0 1-1.544 1.46 4.58 4.58 0 0 1-2.127.515Zm-.046-.875c.627 0 1.187-.135 1.68-.404.492-.27.895-.651 1.186-1.145.29-.494.425-1.055.425-1.706 0-.628-.134-1.212-.425-1.706a2.918 2.918 0 0 0-1.187-1.145c-.492-.269-1.052-.404-1.679-.404-.626 0-1.164.135-1.679.404-.492.27-.895.651-1.186 1.145-.291.494-.425 1.055-.425 1.706 0 .629.134 1.19.425 1.684.29.494.671.875 1.164 1.144.515.292 1.075.427 1.701.427ZM20.27 6.128V2.11h1.59c.649 0 1.164.18 1.5.539.335.359.514.853.514 1.481 0 .651-.179 1.145-.537 1.482-.358.336-.85.516-1.477.516h-1.59Zm1.03-.449-.492-.494h1.03c.313 0 .559-.09.716-.292.156-.202.246-.449.246-.785 0-.36-.09-.629-.269-.808-.179-.18-.403-.27-.716-.27h-1.03l.493-.494V5.68h.022ZM.167 20V0H9.21c1.164 0 2.193.224 3.089.673.895.45 1.612 1.078 2.104 1.863.493.786.739 1.706.739 2.717 0 1.077-.269 2.02-.828 2.828-.56.808-1.299 1.392-2.284 1.773 1.075.314 1.925.898 2.552 1.729.605.852.918 1.863.918 3.052 0 1.1-.269 2.065-.806 2.873-.537.809-1.276 1.415-2.26 1.841-.963.427-2.105.629-3.381.629H.167V20ZM7.912 8.26c.85 0 1.545-.202 2.015-.628.492-.427.739-1.01.739-1.773-.023-.719-.269-1.28-.74-1.684-.47-.404-1.118-.628-1.947-.628H4.442V8.26h3.47Zm.358 8.193c.896 0 1.59-.224 2.06-.65.47-.427.716-1.033.716-1.774 0-.763-.246-1.347-.739-1.773-.492-.427-1.164-.629-2.014-.629h-3.85v4.826H8.27Z"></path></g><defs><clipPath id="BDLogo_svg__a"><path fill="#fff" d="M.167 0H26v20H.167z"></path></clipPath></defs></svg>