<svg class="WaveMask_wave__1C3Fe" style="bottom: 0%;"><path d="M1728 0.553101V1116H0L0 4.10889C9.50698 7.47876 18.6028 12.8157 27.2396 19.7252C38.4172 28.6673 48.1188 32 56.6198 32C65.1208 32 74.8224 28.6673 86 19.7252C101.489 7.33398 118.454 0 136.62 0C154.785 0 171.751 7.33398 187.24 19.7252C198.417 28.6673 208.119 32 216.62 32C225.121 32 234.822 28.6673 246 19.7252C261.489 7.33398 278.454 0 296.62 0C314.785 0 331.751 7.33398 347.24 19.7252C358.417 28.6673 368.119 32 376.62 32C385.121 32 394.822 28.6673 406 19.7252C421.489 7.33398 438.454 0 456.62 0C474.785 0 491.751 7.33398 507.24 19.7252C518.417 28.6673 528.119 32 536.62 32C545.121 32 554.822 28.6673 566 19.7252C581.489 7.33398 598.454 0 616.62 0C634.785 0 651.751 7.33398 667.24 19.7252C678.417 28.6673 688.119 32 696.62 32C705.121 32 714.822 28.6673 726 19.7252C741.489 7.33398 758.454 0 776.62 0C794.785 0 811.751 7.33398 827.24 19.7252C838.417 28.6673 848.119 32 856.62 32C865.121 32 874.822 28.6673 886 19.7252C901.489 7.33398 918.454 0 936.62 0C954.786 0 971.751 7.33398 987.24 19.7252C998.417 28.6673 1008.12 32 1016.62 32C1025.12 32 1034.82 28.6673 1046 19.7252C1061.49 7.33398 1078.45 0 1096.62 0C1114.79 0 1131.75 7.33398 1147.24 19.7252C1158.42 28.6673 1168.12 32 1176.62 32C1185.12 32 1194.82 28.6673 1206 19.7252C1221.49 7.33398 1238.45 0 1256.62 0C1274.79 0 1291.75 7.33398 1307.24 19.7252C1318.42 28.6673 1328.12 32 1336.62 32C1345.12 32 1354.82 28.6673 1366 19.7252C1381.49 7.33398 1398.45 0 1416.62 0C1434.79 0 1451.75 7.33398 1467.24 19.7252C1478.42 28.6673 1488.12 32 1496.62 32C1505.12 32 1514.82 28.6673 1526 19.7252C1541.49 7.33398 1558.45 0 1576.62 0C1594.79 0 1611.75 7.33398 1627.24 19.7252C1638.42 28.6673 1648.12 32 1656.62 32C1665.12 32 1674.82 28.6673 1686 19.7252C1699.01 9.31512 1713.07 2.47437 1728 0.553101Z" fill="currentColor"></path></svg>