<svg class="WaveMaskLarge_wave__6XDQN" style="bottom: 0%;"><path d="M0 972.344V0.67139C6.12691 0.225906 12.2916 0 18.4932 0C87.2135 0 151.392 27.7384 209.986 74.6043C252.271 108.425 288.972 121.03 321.131 121.03C353.29 121.03 389.991 108.425 432.275 74.6043C490.87 27.7384 555.048 0 623.768 0C692.489 0 756.667 27.7384 815.262 74.6043C857.546 108.425 894.247 121.03 926.406 121.03C943.588 121.03 962.066 117.432 982 108.922V1085.9C963.826 1089.91 945.287 1092 926.406 1092C857.686 1092 793.507 1064.26 734.913 1017.4C692.628 983.575 655.927 970.97 623.768 970.97C591.609 970.97 554.909 983.575 512.624 1017.4C454.029 1064.26 389.851 1092 321.131 1092C252.411 1092 188.232 1064.26 129.638 1017.4C87.3531 983.575 50.6522 970.97 18.4932 970.97C12.4894 970.97 6.32724 971.41 0 972.344Z" fill="currentColor"></path></svg>