<svg xmlns="http://www.w3.org/2000/svg" fill="none" viewBox="0 0 24 24"><path fill="currentColor" fill-rule="evenodd" d="M5.812 1.35A4.464 4.464 0 0 0 1.348 5.81v11.904a4.464 4.464 0 0 0 4.464 4.464h11.904a4.464 4.464 0 0 0 4.462-4.464V5.811a4.464 4.464 0 0 0-4.462-4.462H5.812ZM19 5.817a1.286 1.286 0 1 1-2.572 0 1.286 1.286 0 0 1 2.572 0Zm-7.235 2.38a3.566 3.566 0 1 0 0 7.131 3.566 3.566 0 0 0 0-7.131Zm-5.281 3.565a5.28 5.28 0 1 1 10.56 0 5.28 5.28 0 0 1-10.56 0Z" clip-rule="evenodd"></path></svg>